<svg xmlns="http://www.w3.org/2000/svg" width="25.999" height="25.999" viewBox="0 0 25.999 25.999">
  <path id="Icon_metro-cross" data-name="Icon metro-cross" d="M28.332,22.815h0l-7.887-7.887L28.332,7.04h0a.814.814,0,0,0,0-1.149L24.606,2.165a.815.815,0,0,0-1.149,0h0L15.57,10.053,7.683,2.165h0a.814.814,0,0,0-1.149,0L2.808,5.891a.814.814,0,0,0,0,1.149h0L10.7,14.927,2.808,22.815h0a.814.814,0,0,0,0,1.149L6.534,27.69a.814.814,0,0,0,1.149,0h0L15.57,19.8l7.887,7.887h0a.814.814,0,0,0,1.149,0l3.726-3.726a.814.814,0,0,0,0-1.149Z" transform="translate(-2.571 -1.928)" fill="#fff"/>
</svg>
